<svg width="800" height="960" viewBox="0 0 800 960" fill="none" xmlns="http://www.w3.org/2000/svg">
  <rect width="800" height="960" rx="48" fill="#FFF7ED"/>
  <circle cx="210" cy="170" r="132" fill="#FDBA74"/>
  <circle cx="650" cy="780" r="148" fill="#FED7AA"/>
  <rect x="120" y="154" width="560" height="658" rx="48" fill="#0F172A"/>
  <rect x="156" y="204" width="488" height="560" rx="36" fill="#1E293B"/>
  <circle cx="408" cy="360" r="114" fill="#FFE7CC"/>
  <path d="M294 350C294 286.487 345.487 235 409 235H422C485.513 235 537 286.487 537 350V405H294V350Z" fill="#111827"/>
  <path d="M182 655C182 568.291 252.291 498 339 498H468C554.709 498 625 568.291 625 655V764H182V655Z" fill="#EA580C"/>
  <rect x="236" y="618" width="332" height="96" rx="22" fill="#FFF1E6"/>
  <rect x="264" y="646" width="276" height="20" rx="10" fill="#C2410C"/>
  <path d="M542 276L590 358L494 358L542 276Z" fill="#FB923C"/>
  <text x="400" y="876" text-anchor="middle" fill="#C2410C" font-family="Segoe UI, Arial, sans-serif" font-size="40" font-weight="800" letter-spacing="6">
    LOCAL V2
  </text>
  <text x="400" y="918" text-anchor="middle" fill="#111827" font-family="Segoe UI, Arial, sans-serif" font-size="28" font-weight="700" letter-spacing="8">
    ASSET SAFE
  </text>
</svg>
